<svg width="52" height="52" viewBox="0 0 52 52" fill="none" xmlns="http://www.w3.org/2000/svg">
<rect width="52" height="52.0063" rx="26" fill="#F3F3F3"/>
<path fill-rule="evenodd" clip-rule="evenodd" d="M37.364 15.0677H32.6264V13.1709C32.6039 12.935 32.4943 12.7159 32.319 12.5564C32.1436 12.397 31.9151 12.3086 31.6781 12.3086C31.441 12.3086 31.2125 12.397 31.0371 12.5564C30.8618 12.7159 30.7522 12.935 30.7297 13.1709V15.0677H21.2889V13.1709C21.2665 12.935 21.1568 12.7159 20.9815 12.5564C20.8061 12.397 20.5776 12.3086 20.3406 12.3086C20.1035 12.3086 19.875 12.397 19.6997 12.5564C19.5243 12.7159 19.4147 12.935 19.3922 13.1709V15.0677H14.6375C14.3881 15.0665 14.1409 15.1148 13.9103 15.2097C13.6797 15.3047 13.4701 15.4443 13.2937 15.6207C13.1174 15.797 12.9777 16.0066 12.8828 16.2372C12.7879 16.4678 12.7396 16.715 12.7407 16.9644V21.6676H39.2607V16.9644C39.2607 16.4614 39.0609 15.9789 38.7052 15.6232C38.3495 15.2675 37.867 15.0677 37.364 15.0677Z" fill="#0E1073"/>
<path fill-rule="evenodd" clip-rule="evenodd" d="M12.7407 37.7939C12.7396 38.0433 12.7879 38.2905 12.8828 38.5211C12.9777 38.7517 13.1174 38.9613 13.2937 39.1376C13.4701 39.314 13.6797 39.4537 13.9103 39.5486C14.1409 39.6435 14.3881 39.6918 14.6375 39.6906H37.364C37.6134 39.6918 37.8605 39.6435 38.0912 39.5486C38.3218 39.4537 38.5313 39.314 38.7077 39.1376C38.8841 38.9613 39.0237 38.7517 39.1186 38.5211C39.2136 38.2905 39.2618 38.0433 39.2607 37.7939V23.5898H12.7407V37.7939Z" fill="#0E1073"/>
</svg>
