<svg width="703" height="703" viewBox="0 0 703 703" fill="none" xmlns="http://www.w3.org/2000/svg">
<path fill-rule="evenodd" clip-rule="evenodd" d="M331.369 0.605557C246.567 5.80925 168.091 40.3777 107.653 99.1492C73.5514 132.313 49.3895 166.486 31.1352 207.372C-1.33818 280.11 -8.426 360.495 10.8798 437.109C17.8493 464.765 31.1382 498.635 43.7217 520.807L49.2083 530.478L25.2876 596.451C12.1305 632.738 0.934063 664.523 0.40682 667.088C-2.40764 680.771 9.78636 698.456 24.4623 701.978C29.4876 703.182 33.8778 703.322 37.8591 702.399C41.1169 701.644 72.765 690.452 108.189 677.526C162.354 657.763 173.055 654.304 175.476 655.778C189.53 664.334 217.794 677.007 239.251 684.37C350.081 722.411 475.419 701.055 568.778 628.228C582.548 617.486 609.091 591.421 622.427 575.548C693.456 490.995 719.841 373.796 692.277 265.269C679.606 215.374 654.416 165.756 622.427 127.677C609.097 111.811 582.557 85.7475 568.778 74.9941C502.022 22.8928 414.594 -4.50078 331.369 0.605557Z" fill="black"/>
<path fill-rule="evenodd" clip-rule="evenodd" d="M331.369 0.605557C246.567 5.80925 168.091 40.3777 107.653 99.1492C73.5514 132.313 49.3895 166.486 31.1352 207.372C-1.33818 280.11 -8.426 360.495 10.8798 437.109C17.8493 464.765 31.1382 498.635 43.7217 520.807L49.2083 530.478L25.2876 596.451C12.1305 632.738 0.934063 664.523 0.40682 667.088C-2.40764 680.771 9.78636 698.456 24.4623 701.978C29.4876 703.182 33.8778 703.322 37.8591 702.399C41.1169 701.644 72.765 690.452 108.189 677.526C162.354 657.763 173.055 654.304 175.476 655.778C189.53 664.334 217.794 677.007 239.251 684.37C350.081 722.411 475.419 701.055 568.778 628.228C582.548 617.486 609.091 591.421 622.427 575.548C693.456 490.995 719.841 373.796 692.277 265.269C679.606 215.374 654.416 165.756 622.427 127.677C609.097 111.811 582.557 85.7475 568.778 74.9941C502.022 22.8928 414.594 -4.50078 331.369 0.605557Z" fill="url(#paint0_linear_150_272)"/>
<path fill-rule="evenodd" clip-rule="evenodd" d="M140.033 141.486C139.237 141.741 137.642 142.798 136.487 143.836C133.386 146.622 132.235 150.728 133.514 154.44C133.794 155.252 146.504 177.463 161.758 203.797C177.013 230.131 189.493 251.792 189.493 251.933C189.493 252.073 187.707 254.074 185.524 256.377C175.561 266.892 166.474 279.896 159.82 293.161C151.583 309.583 145.651 329.833 143.883 347.567C143.601 350.394 143.434 372.263 143.434 406.457C143.434 464.793 143.405 463.941 145.635 471.603C150.02 486.669 158.205 499.739 171.068 512.213C205.517 545.623 267.426 563 352.005 563C436.579 563 498.602 545.59 532.927 512.213C545.893 499.605 554.037 486.601 558.36 471.603C560.612 463.792 560.575 464.86 560.575 406.457C560.575 372.263 560.409 350.394 560.127 347.567C559.036 336.632 556.276 324.273 552.381 312.891C544.991 291.291 533.644 272.424 518.247 256.133C514.752 252.435 514.506 252.058 514.989 251.139C515.276 250.592 527.718 229.08 542.637 203.334C557.557 177.588 570.063 155.807 570.428 154.932C571.475 152.43 571.047 148.452 569.454 145.878C565.954 140.222 557.83 139.334 553.294 144.112C552.238 145.225 528.716 185.471 502.87 230.387C500.602 234.328 498.605 237.712 498.432 237.908C498.26 238.103 496.186 236.909 493.824 235.253C473.131 220.751 445.238 209.582 415.586 203.925C375.923 196.359 328.086 196.359 288.424 203.925C267.982 207.825 246.827 214.861 230.338 223.245C223.712 226.614 214.931 231.856 209.763 235.527C207.647 237.029 205.858 238.198 205.786 238.123C205.714 238.048 193.611 217.176 178.891 191.74C150.465 142.622 150.459 142.614 146.585 141.453C144.526 140.837 142.024 140.85 140.033 141.486ZM438.383 328.987C453.958 330.697 468.622 336.95 480.623 347.001C500.28 363.463 510.759 389.462 507.969 414.844C505.346 438.701 491.839 460.396 471.872 472.82C461.88 479.037 450.132 483.093 438.383 484.383C432.521 485.027 271.488 485.027 265.626 484.383C256.259 483.355 248.317 481.054 239.681 476.869C216.619 465.691 201.332 445.262 196.585 419.278C195.536 413.534 195.536 399.836 196.585 394.092C198.896 381.442 203.368 370.777 210.663 360.514C214.079 355.71 223.148 346.732 228.068 343.288C240.055 334.894 251.449 330.663 267.056 328.808C270.588 328.389 434.49 328.559 438.383 328.987ZM272.848 386.286C265.77 387.48 258.65 390.995 252.957 396.106C250.818 398.027 242.235 408.355 242.578 408.596C242.657 408.652 246.275 411.469 250.616 414.856C254.957 418.243 258.675 421.015 258.877 421.015C259.08 421.015 260.583 419.263 262.216 417.122C266.021 412.136 268.402 409.964 271.808 408.371C275.428 406.678 278.163 406.38 281.431 407.323C286.268 408.718 288.977 410.839 293.344 416.648C295.137 419.032 296.764 420.99 296.961 420.999C297.276 421.013 311.284 410.469 312.846 409.042C313.347 408.585 312.844 407.717 309.808 403.79C307.807 401.203 305.288 398.225 304.211 397.173C295.576 388.742 283.384 384.509 272.848 386.286ZM418.848 386.286C411.77 387.48 404.649 390.995 398.956 396.106C396.817 398.027 388.234 408.355 388.577 408.596C388.657 408.652 392.274 411.469 396.615 414.856C400.957 418.243 404.674 421.015 404.877 421.015C405.079 421.015 406.582 419.263 408.216 417.122C412.02 412.136 414.402 409.964 417.807 408.371C421.427 406.678 424.163 406.38 427.43 407.323C432.267 408.718 434.977 410.839 439.344 416.648C441.136 419.032 442.764 420.99 442.961 420.999C443.275 421.013 457.283 410.469 458.845 409.042C459.346 408.585 458.844 407.717 455.807 403.79C453.806 401.203 451.288 398.225 450.21 397.173C441.575 388.742 429.383 384.509 418.848 386.286Z" fill="white"/>
<defs>
<linearGradient id="paint0_linear_150_272" x1="-2.62707e-05" y1="-128.399" x2="897.095" y2="904.854" gradientUnits="userSpaceOnUse">
<stop stop-color="#FE01C4"/>
<stop offset="1" stop-color="#3B026B"/>
</linearGradient>
</defs>
</svg>
