<svg width="644" height="644" viewBox="0 0 644 644" fill="none" xmlns="http://www.w3.org/2000/svg">
<g clip-path="url(#clip0_106_19)">
<path fill-rule="evenodd" clip-rule="evenodd" d="M322 0C499.838 0 644 144.162 644 322C644 499.838 499.838 644 322 644C144.162 644 0 499.838 0 322C0 144.162 144.162 0 322 0ZM179.542 330.567C183.862 305.518 212.453 291.571 235.013 305.142C237.059 306.363 239.011 307.812 240.829 309.476L241.004 309.643C251.126 319.344 262.47 329.44 273.713 339.448L283.36 348.109L397.824 228.043C404.66 220.885 409.658 216.257 419.915 213.949C455.033 206.201 479.726 249.127 454.838 275.364L312.179 425.08C298.742 439.416 274.726 440.724 260.283 427.032C252.005 419.345 243.003 411.523 233.899 403.627C218.135 389.929 202.055 375.955 188.947 362.123C181.078 354.26 177.684 341.387 179.542 330.567Z" fill="#3AB54A"/>
</g>
<defs>
<clipPath id="clip0_106_19">
<rect width="644" height="644" fill="white"/>
</clipPath>
</defs>
</svg>
