<svg width="52" height="52" viewBox="0 0 52 52" fill="none" xmlns="http://www.w3.org/2000/svg">
<rect width="52" height="52" rx="26" fill="#F3F3F3"/>
<path d="M39.33 32.56V36.56C39.3315 36.9313 39.2554 37.2989 39.1067 37.6391C38.9579 37.9793 38.7397 38.2848 38.4661 38.5358C38.1925 38.7868 37.8694 38.9779 37.5177 39.0969C37.1659 39.2159 36.7932 39.2601 36.4233 39.2266C32.3204 38.7808 28.3793 37.3788 24.9167 35.1333C21.6951 33.0862 18.9638 30.3549 16.9167 27.1333C14.6633 23.6549 13.261 19.6946 12.8233 15.5733C12.79 15.2046 12.8338 14.833 12.952 14.4821C13.0702 14.1313 13.2601 13.8089 13.5097 13.5355C13.7593 13.262 14.0631 13.0436 14.4017 12.894C14.7404 12.7444 15.1064 12.667 15.4767 12.6666H19.4767C20.1237 12.6603 20.751 12.8894 21.2417 13.3113C21.7323 13.7333 22.0528 14.3192 22.1433 14.96C22.3122 16.2401 22.6253 17.4969 23.0767 18.7066C23.256 19.1839 23.2949 19.7025 23.1885 20.2011C23.0822 20.6998 22.8351 21.1574 22.4767 21.52L20.7833 23.2133C22.6814 26.5514 25.4453 29.3152 28.7833 31.2133L30.4767 29.52C30.8392 29.1615 31.2969 28.9144 31.7955 28.8081C32.2941 28.7018 32.8128 28.7406 33.29 28.92C34.4997 29.3714 35.7566 29.6845 37.0367 29.8533C37.6843 29.9447 38.2759 30.2709 38.6987 30.77C39.1215 31.269 39.3462 31.9061 39.33 32.56Z" fill="#0E1073"/>
</svg>
