<svg width="52" height="52" viewBox="0 0 52 52" fill="none" xmlns="http://www.w3.org/2000/svg">
<rect width="52" height="52" rx="26" fill="#F3F3F3"/>
<path d="M31.3359 15.3333H34.0026C34.7098 15.3333 35.3881 15.6142 35.8882 16.1143C36.3883 16.6144 36.6693 17.2927 36.6693 17.9999V36.6666C36.6693 37.3738 36.3883 38.0521 35.8882 38.5522C35.3881 39.0523 34.7098 39.3333 34.0026 39.3333H18.0026C17.2954 39.3333 16.6171 39.0523 16.117 38.5522C15.6169 38.0521 15.3359 37.3738 15.3359 36.6666V17.9999C15.3359 17.2927 15.6169 16.6144 16.117 16.1143C16.6171 15.6142 17.2954 15.3333 18.0026 15.3333H20.6693" fill="#0E1073"/>
<path d="M31.3359 15.3333H34.0026C34.7098 15.3333 35.3881 15.6142 35.8882 16.1143C36.3883 16.6144 36.6693 17.2927 36.6693 17.9999V36.6666C36.6693 37.3738 36.3883 38.0521 35.8882 38.5522C35.3881 39.0523 34.7098 39.3333 34.0026 39.3333H18.0026C17.2954 39.3333 16.6171 39.0523 16.117 38.5522C15.6169 38.0521 15.3359 37.3738 15.3359 36.6666V17.9999C15.3359 17.2927 15.6169 16.6144 16.117 16.1143C16.6171 15.6142 17.2954 15.3333 18.0026 15.3333H20.6693" stroke="#F3F3F3" stroke-width="2" stroke-linecap="round" stroke-linejoin="round"/>
<path d="M30.0052 12.6667H22.0052C21.2688 12.6667 20.6719 13.2637 20.6719 14.0001V16.6667C20.6719 17.4031 21.2688 18.0001 22.0052 18.0001H30.0052C30.7416 18.0001 31.3385 17.4031 31.3385 16.6667V14.0001C31.3385 13.2637 30.7416 12.6667 30.0052 12.6667Z" fill="#0E1073" stroke="#F3F3F3" stroke-width="2" stroke-linecap="round" stroke-linejoin="round"/>
</svg>
