<svg width="644" height="644" viewBox="0 0 644 644" fill="none" xmlns="http://www.w3.org/2000/svg">
<g clip-path="url(#clip0_106_16)">
<path fill-rule="evenodd" clip-rule="evenodd" d="M322 0C499.823 0 644 144.177 644 322C644 499.823 499.823 644 322 644C144.177 644 0 499.823 0 322C0 144.177 144.177 0 322 0ZM284.161 197.319C284.161 147.898 359.472 147.845 359.472 197.424V332.377L444.532 377.396C444.951 377.606 445.37 377.868 445.737 378.182L446.471 378.706C485.987 404.596 449.249 466.806 407.007 442.383L406.85 442.278L303.919 387.144C291.865 380.698 284.056 367.91 284.056 354.179H284.108L284.161 197.319Z" fill="#FF8A00"/>
</g>
<defs>
<clipPath id="clip0_106_16">
<rect width="644" height="644" fill="white"/>
</clipPath>
</defs>
</svg>
